<svg width="28" height="28" viewBox="0 0 28 28" fill="none" xmlns="http://www.w3.org/2000/svg">
<path d="M14.2268 4.90637C15.4433 4.90637 16.6099 5.39008 17.4701 6.25108C18.3302 7.11209 18.8135 8.27986 18.8135 9.49751C18.8135 10.7151 18.3302 11.8829 17.4701 12.7439C16.6099 13.6049 15.4433 14.0886 14.2268 14.0886C13.0103 14.0886 11.8437 13.6049 10.9835 12.7439C10.1234 11.8829 9.64013 10.7151 9.64013 9.49751C9.64013 8.27986 10.1234 7.11209 10.9835 6.25108C11.8437 5.39008 13.0103 4.90637 14.2268 4.90637ZM14.2268 16.3842C19.2951 16.3842 23.4001 18.4387 23.4001 20.9753V23.2709H5.05347V20.9753C5.05347 18.4387 9.15853 16.3842 14.2268 16.3842Z" fill="#D6D1D5"/>
</svg>
