<svg width="28" height="28" viewBox="0 0 28 28" fill="none" xmlns="http://www.w3.org/2000/svg">
<g clip-path="url(#clip0_629_654)">
<path d="M5.38643 7.20195H0.95571C0.44659 7.20195 -0.0625295 7.64269 0.00627053 8.35891L2.15283 22.1185C2.15283 22.1185 4.69843 11.9813 5.19379 9.54342C5.34515 8.81343 6.03315 8.57929 6.54227 8.57929H13.6424C13.6424 8.57929 12.6792 5.71442 12.5829 5.39763C12.4178 4.7916 12.1151 4.44727 11.5096 4.44727H6.95507C6.45971 4.44727 5.99187 4.76405 5.85427 5.32876C5.73043 5.8797 5.38643 7.20195 5.38643 7.20195ZM12.1013 7.20195H6.59731C6.59731 7.20195 7.17523 5.82461 7.79443 5.82461H10.7253C11.3858 5.82461 12.1013 7.20195 12.1013 7.20195ZM3.55635 22.697C3.12979 23.3444 2.51059 23.73 1.82259 23.73H23.4671C24.2101 23.73 24.733 23.3031 24.8843 22.5868C25.4898 19.5705 27.196 10.9621 27.196 10.9621C27.2924 10.2734 26.7832 9.95663 26.3429 9.95663H21.8984V7.93194C21.8984 7.71156 21.5407 7.20195 20.9903 7.20195H15.8165C15.101 7.20195 14.6194 8.0008 14.6194 8.0008L13.6424 9.95663H7.57427C7.13395 9.95663 6.70739 10.2183 6.62483 10.6453C6.62483 10.6453 4.43699 19.8735 4.25811 20.7412C4.16179 21.2508 3.95539 22.1048 3.55635 22.697ZM21.0453 9.95663H15.0184C15.0184 9.95663 15.8165 8.57929 16.5733 8.57929H19.7244C20.7013 8.57929 21.0453 9.95663 21.0453 9.95663Z" fill="#D6D1D5"/>
</g>
<defs>
<clipPath id="clip0_629_654">
<rect width="27.52" height="27.5468" fill="white" transform="translate(0 0.315247)"/>
</clipPath>
</defs>
</svg>
