<svg width="29" height="28" viewBox="0 0 29 28" fill="none" xmlns="http://www.w3.org/2000/svg">
<g clip-path="url(#clip0_629_680)">
<path d="M16.9199 16.3842H12.3333V24.4187H16.9199V16.3842Z" fill="#B5C5F2"/>
<path d="M24.2817 11.9997L15.4409 2.95517C15.3343 2.84759 15.2075 2.76221 15.0678 2.70393C14.928 2.64566 14.7781 2.61566 14.6268 2.61566C14.4754 2.61566 14.3255 2.64566 14.1858 2.70393C14.0461 2.76221 13.9192 2.84759 13.8126 2.95517L4.97184 12.0112C4.75791 12.227 4.58896 12.4833 4.47479 12.7651C4.36062 13.0468 4.30351 13.3485 4.30677 13.6525V23.2709C4.30588 23.8585 4.53011 24.424 4.93328 24.8511C5.33645 25.2781 5.88787 25.5342 6.47397 25.5665H10.0401V15.2365C10.0401 14.932 10.1609 14.6401 10.376 14.4248C10.591 14.2096 10.8827 14.0887 11.1868 14.0887H18.0668C18.3709 14.0887 18.6625 14.2096 18.8776 14.4248C19.0926 14.6401 19.2134 14.932 19.2134 15.2365V25.5665H22.7796C23.3657 25.5342 23.9171 25.2781 24.3203 24.8511C24.7234 24.424 24.9477 23.8585 24.9468 23.2709V13.6525C24.9477 13.0361 24.7092 12.4434 24.2817 11.9997Z" fill="#9CAFE2"/>
</g>
<defs>
<clipPath id="clip0_629_680">
<rect width="27.52" height="27.5468" fill="white" transform="translate(0.866699 0.315247)"/>
</clipPath>
</defs>
</svg>
